<?xml version="1.0" encoding="UTF-8"?>
<svg width="511px" height="172px" viewBox="0 0 511 172" version="1.1" xmlns="http://www.w3.org/2000/svg" xmlns:xlink="http://www.w3.org/1999/xlink">
    <!-- Generator: Sketch 52.6 (67491) - http://www.bohemiancoding.com/sketch -->
    <title>Fit logo outlines</title>
    <desc>Created with Sketch.</desc>
    <g id="Fit-logo-outlines" stroke="none" stroke-width="1" fill="none" fill-rule="evenodd">
        <path d="M72.3194227,72.759222 L63.1696567,72.759222 L63.1696567,11.8618377 L62.9707488,11.8618377 L41.9859594,72.759222 L33.3334633,72.759222 L12.4481279,10.8692153 L12.149766,10.8692153 L12.149766,72.759222 L3,72.759222 L3,0 L17.4208268,0 L34.676092,51.5171026 C36.5988785,57.2412537 37.7094368,60.8312022 38.0078003,62.2870557 L38.2067082,62.2870557 C39.1017985,59.4746115 40.3946873,55.5868793 42.0854134,50.6237425 L59.4898595,0 L72.3194227,0 L72.3194227,72.759222 Z M128.644111,48.6881288 L89.1111544,48.6881288 C89.4758208,54.5115426 91.1416583,58.9617552 94.1087168,62.0389001 C97.0757753,65.1160449 100.780399,66.6545942 105.222699,66.6545942 C108.637303,66.6545942 111.504864,65.7529712 113.825468,63.9496982 C116.146072,62.1464251 117.919651,59.4250126 119.146256,55.7853789 L128.345749,56.9268947 C126.853932,62.4194328 124.118975,66.6380358 120.140796,69.5828303 C116.162617,72.5276248 111.189967,74 105.222699,74 C97.2994923,74 91.1085441,71.5763712 86.6496685,66.7290409 C82.1907928,61.8817106 79.9613885,55.2560223 79.9613885,46.8517773 C79.9613885,38.5467951 82.1244908,31.8135738 86.4507605,26.6519115 C90.7770302,21.4902492 96.8685254,18.9094567 104.725429,18.9094567 C108.571002,18.9094567 112.275626,19.7531773 115.839411,21.4406439 C119.403196,23.1281104 122.428225,25.9984148 124.914587,30.0516432 C127.400948,34.1048716 128.644111,40.3169713 128.644111,48.6881288 Z M119.444618,41.342723 C119.079951,35.9825352 117.414114,32.1196184 114.447055,29.7538565 C111.479997,27.3880946 108.239487,26.2052314 104.725429,26.2052314 C100.51519,26.2052314 97.0509106,27.6114324 94.3324883,30.4238766 C91.614066,33.2363208 90.0393937,36.8758999 89.6084243,41.342723 L119.444618,41.342723 Z M181.090094,72.759222 L171.691693,72.759222 C170.829754,71.1048431 170.21646,68.9376392 169.851794,66.2575453 C163.851374,71.4192076 157.370355,74 150.408541,74 C144.839091,74 140.446584,72.6103425 137.230889,69.8309859 C134.015195,67.0516293 132.407371,63.3789631 132.407371,58.8128773 C132.407371,54.4453169 133.95718,50.8470966 137.056845,48.0181087 C140.156509,45.1891207 145.535258,43.3114287 153.193253,42.3849765 L161.547387,41.1441985 C164.663627,40.6478848 167.232829,40.0357738 169.25507,39.3078471 C169.25507,36.6277532 169.172193,34.7335177 169.006435,33.6250838 C168.840678,32.5166499 168.351701,31.3668738 167.539489,30.175721 C166.727278,28.9845682 165.426101,28.0250428 163.63592,27.297116 C161.84574,26.5691893 159.442293,26.2052314 156.425507,26.2052314 C152.579934,26.2052314 149.53833,26.9166037 147.300605,28.3393696 C145.062879,29.7621354 143.529645,32.409102 142.700858,36.2803488 L133.948908,35.138833 C134.910301,29.7455577 137.38005,25.69239 141.358229,22.9792086 C145.336408,20.2660271 150.806322,18.9094567 157.768136,18.9094567 C164.100071,18.9094567 168.749498,19.8441668 171.716556,21.713615 C174.683615,23.5830632 176.506919,25.8412566 177.186525,28.4882629 C177.866131,31.1352692 178.205928,34.5432387 178.205928,38.7122736 L178.205928,50.7230047 C178.205928,58.0353596 178.34682,62.9405196 178.628608,65.4386318 C178.910395,67.936744 179.730882,70.3769163 181.090094,72.759222 Z M169.25507,49.5814889 L169.25507,46.3554661 C164.58071,47.9105823 158.862163,49.1430762 152.099259,50.0529846 C145.336355,50.962893 141.954953,53.8166539 141.954953,58.6143528 C141.954953,61.029746 142.866606,63.0232428 144.689938,64.5949027 C146.51327,66.1665627 149.132198,66.952381 152.546802,66.952381 C156.95595,66.952381 160.842904,65.6371694 164.207781,63.0067069 C167.572657,60.3762444 169.25507,55.9012165 169.25507,49.5814889 Z M231,72.759222 L221.999415,72.759222 L221.999415,40.7471496 C221.999415,35.3538742 221.029748,31.648121 219.090386,29.6297787 C217.151024,27.6114364 214.457506,26.6022803 211.00975,26.6022803 C208.357631,26.6022803 205.846443,27.2474785 203.476112,28.537894 C201.10578,29.8283096 199.423367,31.6480991 198.428822,33.9973172 C197.434277,36.3465353 196.937013,39.6717871 196.937013,43.9731724 L196.937013,72.759222 L187.986155,72.759222 L187.986155,20.1006036 L196.041927,20.1006036 L196.041927,27.5452716 L196.240835,27.5452716 C198.13047,24.6666523 200.459327,22.5077201 203.227477,21.0684105 C205.995626,19.6291008 209.202985,18.9094567 212.849649,18.9094567 C215.634374,18.9094567 218.385907,19.405763 221.104329,20.3983903 C223.822752,21.3910177 225.952703,22.8799364 227.494247,24.8651911 C229.035792,26.8504459 230.005458,28.9680192 230.403276,31.2179745 C230.801094,33.4679299 231,36.5119415 231,40.3501006 L231,72.759222 Z" id="Mean" fill="#050505"></path>
        <path d="M52.3050854,121.188391 L72.4849871,127.267546 C71.1294874,132.90768 68.9946073,137.618978 66.0802828,141.401583 C63.1659583,145.184188 59.5485226,148.037985 55.2278671,149.963061 C50.9072117,151.888136 45.4090482,152.85066 38.7332119,152.85066 C30.6341009,152.85066 24.0176669,151.677057 18.8837116,149.329815 C13.7497563,146.982574 9.31903288,142.853855 5.59140855,136.943536 C1.86378421,131.033216 0,123.46812 0,114.248021 C0,101.954556 3.27856586,92.5066293 9.83579594,85.9039578 C16.393026,79.3012862 25.6695883,76 37.6657612,76 C47.052597,76 54.4314882,77.891274 59.8026559,81.6738786 C65.1738237,85.4564833 69.1640163,91.2653962 71.7733533,99.1007916 L51.4409586,103.609499 C50.7293212,101.346691 49.9838076,99.6918258 49.2043952,98.6448549 C47.9166704,96.8886456 46.3409256,95.5377356 44.4771134,94.5920844 C42.6133013,93.6464333 40.5292516,93.1736148 38.2249021,93.1736148 C33.006228,93.1736148 29.0075637,95.2675252 26.2287892,99.455409 C24.1277646,102.562549 23.077268,107.442711 23.077268,114.096042 C23.077268,122.336717 24.3310865,127.985209 26.838761,131.041689 C29.3464356,134.098168 32.8706821,135.626385 37.4116063,135.626385 C41.8169805,135.626385 45.1463768,134.39368 47.3998952,131.928232 C49.6534135,129.462785 51.2884606,125.882873 52.3050854,121.188391 Z M73.7479417,124.785224 C73.7479417,116.578323 76.5266745,109.81533 82.0842235,104.496042 C87.6417725,99.1767544 95.1477398,96.5171504 104.602351,96.5171504 C115.412461,96.5171504 123.579225,99.6411297 129.102886,105.889182 C133.542148,110.921397 135.761746,117.118697 135.761746,124.481266 C135.761746,132.755714 133.008428,139.535594 127.50171,144.821108 C121.994992,150.106623 114.378892,152.74934 104.653182,152.74934 C95.9779832,152.74934 88.9633771,150.554112 83.6091531,146.163588 C77.0349793,140.726094 73.7479417,133.600044 73.7479417,124.785224 Z M94.4869843,124.734565 C94.4869843,129.530367 95.4612351,133.076506 97.409766,135.373087 C99.3582969,137.669668 101.806632,138.817942 104.754844,138.817942 C107.736943,138.817942 110.185278,137.686555 112.099921,135.423747 C114.014565,133.160939 114.971872,129.530368 114.971872,124.531926 C114.971872,119.871217 114.006093,116.401067 112.074506,114.121372 C110.142919,111.841677 107.753886,110.701847 104.907337,110.701847 C101.89135,110.701847 99.4006562,111.858564 97.4351815,114.172032 C95.4697069,116.4855 94.4869843,120.006309 94.4869843,124.734565 Z M139.871235,97.7329815 L159.18701,97.7329815 L159.18701,105.585224 C161.965785,102.309218 164.769933,99.9788987 167.599539,98.5941953 C170.429144,97.2094918 173.843258,96.5171504 177.841982,96.5171504 C182.145694,96.5171504 185.551336,97.2770373 188.059011,98.7968338 C190.566685,100.31663 192.616848,102.579404 194.20956,105.585224 C197.46276,102.072806 200.427871,99.6833836 203.104983,98.4168865 C205.782095,97.1503894 209.086076,96.5171504 213.017025,96.5171504 C218.811787,96.5171504 223.335699,98.2311174 226.588899,101.659103 C229.842098,105.087088 231.468673,110.448512 231.468673,117.743536 L231.468673,151.533509 L210.729631,151.533509 L210.729631,120.884433 C210.729631,118.452758 210.255213,116.645916 209.306363,115.463852 C207.916976,113.606323 206.18874,112.677573 204.121603,112.677573 C201.681703,112.677573 199.716258,113.555664 198.225208,115.311873 C196.734158,117.068083 195.988645,119.888107 195.988645,123.772032 L195.988645,151.533509 L175.249602,151.533509 L175.249602,121.897625 C175.249602,119.533497 175.114054,117.929292 174.842954,117.08496 C174.402417,115.73403 173.63996,114.644859 172.55556,113.817414 C171.47116,112.989969 170.200398,112.576253 168.743236,112.576253 C166.371111,112.576253 164.42261,113.471231 162.897672,115.261214 C161.372735,117.051196 160.610278,119.989425 160.610278,124.075989 L160.610278,151.533509 L139.871235,151.533509 L139.871235,97.7329815 Z M237.916389,172 L237.916389,97.7329815 L257.282995,97.7329815 L257.282995,105.686544 C259.960107,102.342991 262.416913,100.080217 264.653488,98.898153 C267.669475,97.31081 271.007343,96.5171504 274.667192,96.5171504 C281.885228,96.5171504 287.468109,99.2696295 291.416002,104.77467 C295.363895,110.279711 297.337812,117.08492 297.337812,125.190501 C297.337812,134.140414 295.185989,140.970953 290.882277,145.682322 C286.578565,150.393691 281.139704,152.74934 274.56553,152.74934 C271.380106,152.74934 268.474297,152.208976 265.848016,151.128232 C263.221735,150.047488 260.875061,148.443282 258.807924,146.315567 L258.807924,172 L237.916389,172 Z M258.655431,124.785224 C258.655431,129.040655 259.553436,132.198407 261.349474,134.258575 C263.145511,136.318744 265.415939,137.348813 268.160826,137.348813 C270.566838,137.348813 272.583114,136.36096 274.209713,134.385224 C275.836313,132.409489 276.649601,129.057543 276.649601,124.329288 C276.649601,119.972538 275.802426,116.77257 274.108051,114.729288 C272.413677,112.686006 270.34657,111.66438 267.906671,111.66438 C265.263446,111.66438 263.060792,112.694449 261.298643,114.754617 C259.536493,116.814786 258.655431,120.158288 258.655431,124.785224 Z M358.123852,151.533509 L338.808077,151.533509 L338.808077,142.820053 C335.92764,146.400018 333.021831,148.94986 330.090563,150.469657 C327.159295,151.989454 323.558803,152.74934 319.288978,152.74934 C313.595879,152.74934 309.131269,151.05226 305.895013,147.658047 C302.658758,144.263835 301.040654,139.037502 301.040654,131.978892 L301.040654,97.7329815 L321.830528,97.7329815 L321.830528,127.318206 C321.830528,130.695531 322.457437,133.093397 323.711274,134.511873 C324.965111,135.93035 326.727235,136.639578 328.997697,136.639578 C331.471484,136.639578 333.496231,135.693941 335.072,133.802639 C336.647768,131.911336 337.435641,128.517175 337.435641,123.620053 L337.435641,97.7329815 L358.123852,97.7329815 L358.123852,151.533509 Z M389.631244,77.2664908 L389.631244,97.7329815 L401.017385,97.7329815 L401.017385,112.778892 L389.631244,112.778892 L389.631244,131.877573 C389.631244,134.174154 389.851509,135.693928 390.292047,136.436939 C390.969797,137.58523 392.155841,138.159367 393.850216,138.159367 C395.375153,138.159367 397.510033,137.720321 400.25492,136.842216 L401.77985,151.077573 C396.662838,152.19209 391.884773,152.74934 387.445511,152.74934 C382.294612,152.74934 378.49927,152.090772 376.05937,150.773615 C373.619471,149.456458 371.814989,147.455422 370.64587,144.770449 C369.476752,142.085475 368.892201,137.737233 368.892201,131.725594 L368.892201,112.778892 L361.267553,112.778892 L361.267553,97.7329815 L368.892201,97.7329815 L368.892201,87.8543536 L389.631244,77.2664908 Z M464.802453,129.749868 L423.324368,129.749868 C423.69713,133.059647 424.595136,135.525058 426.01841,137.146174 C428.017772,139.476529 430.62707,140.641689 433.846382,140.641689 C435.879632,140.641689 437.81119,140.135097 439.641115,139.1219 C440.759402,138.480208 441.96239,137.348821 443.250115,135.727704 L463.63334,137.602111 C460.515691,143.005832 456.754236,146.881255 452.348861,149.228496 C447.943487,151.575737 441.623564,152.74934 433.388903,152.74934 C426.238642,152.74934 420.613403,151.744601 416.513016,149.735092 C412.412629,147.725584 409.015459,144.534059 406.321403,140.160422 C403.627347,135.786786 402.280339,130.644884 402.280339,124.734565 C402.280339,116.325024 404.982827,109.519815 410.387882,104.318734 C415.792937,99.1176521 423.256546,96.5171504 432.778932,96.5171504 C440.50528,96.5171504 446.604938,97.6823102 451.078087,100.012665 C455.551236,102.34302 458.956878,105.720295 461.295115,110.144591 C463.633352,114.568888 464.802453,120.327141 464.802453,127.419525 L464.802453,129.749868 Z M443.758425,119.87124 C443.351775,115.885996 442.275863,113.032199 440.530657,111.309763 C438.785451,109.587326 436.489608,108.726121 433.643058,108.726121 C430.355971,108.726121 427.72973,110.026372 425.764255,112.626913 C424.510418,114.248029 423.714074,116.662781 423.375199,119.87124 L443.758425,119.87124 Z M468.505295,97.7329815 L487.871901,97.7329815 L487.871901,106.547757 C489.735713,102.731379 491.6588,100.105548 493.641218,98.6701847 C495.623636,97.2348213 498.071971,96.5171504 500.986296,96.5171504 C504.03617,96.5171504 507.374038,97.4627874 511,99.3540897 L504.595296,114.045383 C502.155396,113.032185 500.223838,112.525594 498.800563,112.525594 C496.089564,112.525594 493.988571,113.640094 492.497521,115.869129 C490.362609,119.010042 489.295169,124.8865 489.295169,133.498681 L489.295169,151.533509 L468.505295,151.533509 L468.505295,97.7329815 Z" id="Computer" fill="#050505"></path>
    </g>
</svg>